<svg xmlns="http://www.w3.org/2000/svg" xmlns:xlink="http://www.w3.org/1999/xlink" viewBox="0,0,256,256" width="24px" height="24px"><g fill="#fffdfd" fill-rule="nonzero" stroke="none" stroke-width="1" stroke-linecap="butt" stroke-linejoin="miter" stroke-miterlimit="10" stroke-dasharray="" stroke-dashoffset="0" font-family="none" font-weight="none" font-size="none" text-anchor="none" style="mix-blend-mode: normal"><path d="M0,256v-256h256v256z" id="bgRectangle"></path></g><g fill="#ff7a57" fill-rule="nonzero" stroke="none" stroke-width="1" stroke-linecap="butt" stroke-linejoin="miter" stroke-miterlimit="10" stroke-dasharray="" stroke-dashoffset="0" font-family="none" font-weight="none" font-size="none" text-anchor="none" style="mix-blend-mode: normal"><g transform="scale(10.66667,10.66667)"><path d="M2.1875,0c-1.19922,0 -2.1875,0.98828 -2.1875,2.1875v19.625c0,1.19922 0.98828,2.1875 2.1875,2.1875h19.625c1.19922,0 2.1875,-0.98828 2.1875,-2.1875v-19.625c0,-1.19922 -0.98828,-2.1875 -2.1875,-2.1875zM9.1875,3.90625h4.40625l-1.40625,0.6875h-1.1875c0.5,0.5 1.5,1.30469 1.5,2.90625c0,1.60156 -0.91406,2.30078 -1.8125,3c-0.30078,0.30078 -0.59375,0.60156 -0.59375,1c0,0.5 0.29297,0.70703 0.59375,0.90625l0.8125,0.59375c0.89844,0.80078 1.8125,1.5 1.8125,3c0,2 -2.02344,4 -5.625,4c-3.10156,0 -4.59375,-1.5 -4.59375,-3c0,-0.80078 0.41797,-1.79297 1.71875,-2.59375c1.30078,-0.80078 3.09375,-0.89844 4.09375,-1c-0.30078,-0.39844 -0.59375,-0.80469 -0.59375,-1.40625c0,-0.39844 0.08594,-0.61328 0.1875,-0.8125h-0.6875c-2.5,0.10156 -3.8125,-1.58203 -3.8125,-3.28125c0,-1 0.50781,-2.11328 1.40625,-2.8125c1.19922,-1 2.67969,-1.1875 3.78125,-1.1875zM7.90625,4.59375c-0.60156,0 -1.19922,0.32031 -1.5,0.71875c-0.39844,0.5 -0.5,1.09375 -0.5,1.59375c0,1.39844 0.78906,3.78125 2.6875,3.78125c0.5,0 1.10156,-0.29297 1.5,-0.59375c0.5,-0.5 0.5,-1.19922 0.5,-1.5c0,-1.60156 -0.88672,-4 -2.6875,-4zM17,8h2v3h3v2h-3v3h-2v-3h-3v-2h3zM8.90625,14.09375c-0.19922,0 -1.41406,0.01172 -2.3125,0.3125c-0.5,0.19922 -1.78125,0.6875 -1.78125,2.1875c0,1.5 1.48047,2.59375 3.78125,2.59375c2.10156,0 3.21875,-0.98047 3.21875,-2.28125c0,-1.10156 -0.71094,-1.71094 -2.3125,-2.8125z"></path></g></g></svg>